<svg width="25" height="24" viewBox="0 0 25 24" fill="none" xmlns="http://www.w3.org/2000/svg">
<path d="M21.75 8H3.75M16.75 2V5M8.75 2V5M8.55 22H16.95C18.6302 22 19.4702 22 20.112 21.673C20.6765 21.3854 21.1354 20.9265 21.423 20.362C21.75 19.7202 21.75 18.8802 21.75 17.2V8.8C21.75 7.11984 21.75 6.27976 21.423 5.63803C21.1354 5.07354 20.6765 4.6146 20.112 4.32698C19.4702 4 18.6302 4 16.95 4H8.55C6.86984 4 6.02976 4 5.38803 4.32698C4.82354 4.6146 4.3646 5.07354 4.07698 5.63803C3.75 6.27976 3.75 7.11984 3.75 8.8V17.2C3.75 18.8802 3.75 19.7202 4.07698 20.362C4.3646 20.9265 4.82354 21.3854 5.38803 21.673C6.02976 22 6.86984 22 8.55 22ZM12.7473 12.3306C11.9475 11.4216 10.6139 11.1771 9.61188 12.0094C8.60986 12.8418 8.46879 14.2335 9.25568 15.2179C9.827 15.9327 11.4093 17.3397 12.2333 18.0569C12.412 18.2124 12.5013 18.2902 12.606 18.321C12.6966 18.3477 12.7979 18.3477 12.8886 18.321C12.9932 18.2902 13.0825 18.2124 13.2612 18.0569C14.0853 17.3397 15.6675 15.9327 16.2388 15.2179C17.0257 14.2335 16.9019 12.8331 15.8826 12.0094C14.8634 11.1858 13.547 11.4216 12.7473 12.3306Z" stroke="black" stroke-width="1.5" stroke-linecap="round" stroke-linejoin="round"/>
</svg>
