<svg width="30" height="30" viewBox="0 0 30 30" fill="none" xmlns="http://www.w3.org/2000/svg">
<path d="M14.8128 3.04974C10.2633 3.04974 6.57227 6.56283 6.57227 10.8897C6.57227 15.8683 12.0659 23.758 14.0832 26.4831C14.1669 26.5982 14.2766 26.6918 14.4034 26.7563C14.5302 26.8208 14.6705 26.8545 14.8128 26.8545C14.9551 26.8545 15.0953 26.8208 15.2221 26.7563C15.3489 26.6918 15.4587 26.5982 15.5424 26.4831C17.5596 23.7592 23.0533 15.8723 23.0533 10.8897C23.0533 6.56283 19.3622 3.04974 14.8128 3.04974Z" stroke="#EE2D21" stroke-width="2.74684" stroke-linecap="round" stroke-linejoin="round"/>
<path d="M14.8128 14.0371C16.3298 14.0371 17.5596 12.8073 17.5596 11.2902C17.5596 9.7732 16.3298 8.5434 14.8128 8.5434C13.2957 8.5434 12.0659 9.7732 12.0659 11.2902C12.0659 12.8073 13.2957 14.0371 14.8128 14.0371Z" stroke="#EE2D21" stroke-width="1.83123" stroke-linecap="round" stroke-linejoin="round"/>
</svg>
