<svg width="29" height="29" viewBox="0 0 29 29" fill="none" xmlns="http://www.w3.org/2000/svg">
<path d="M8.59242 13.2049L7.69958 7.70149C7.65746 7.44269 7.68029 7.17749 7.76602 6.9297C7.85176 6.68192 7.99771 6.45931 8.19077 6.28189C8.39743 6.08277 8.65352 5.94245 8.93257 5.87544C9.21161 5.80842 9.5035 5.81714 9.77805 5.9007L25.3141 10.7497C25.6116 10.8317 25.8793 10.9973 26.0854 11.227C26.2916 11.4567 26.4274 11.7407 26.4768 12.0453C26.5263 12.3499 26.4872 12.6623 26.3642 12.9454C26.2413 13.2284 26.0396 13.4702 25.7833 13.642L12.5771 23.154C12.3533 23.3164 12.0916 23.4184 11.8169 23.4503C11.5423 23.4822 11.2641 23.4429 11.0091 23.3363C10.7535 23.2332 10.5293 23.0651 10.3586 22.8488C10.188 22.6324 10.0767 22.3752 10.0359 22.1027L9.31717 17.7358L5.56791 17.1793L8.59242 13.2049ZM8.59242 13.2049L26.4362 11.9488" stroke="#EE2D21" stroke-width="2.87764" stroke-linecap="round" stroke-linejoin="round"/>
</svg>
