<svg width="421" height="75" viewBox="0 0 421 75" fill="none" xmlns="http://www.w3.org/2000/svg">
<path d="M201.697 0H215.697V6H201.697V0Z" fill="white"/>
<path d="M16.4123 57.2384H7.18509V27.5904H0V19.8759H7.18509V8.22847H16.4123V19.8759H23.673V27.5904H16.4123V57.2384Z" fill="#EE2D21"/>
<path d="M52.8554 19.7246V28.2711H49.4519C42.7962 28.2711 38.6364 31.8258 38.6364 39.0866V57.2384H29.4093V19.9515H38.107L38.6364 25.3971C40.2247 21.6911 43.7794 19.1952 48.7712 19.1952C50.0569 19.1952 51.3427 19.3465 52.8554 19.7246Z" fill="#EE2D21"/>
<path d="M68.7417 58.2216C60.8003 58.2216 55.9598 53.608 55.9598 46.5742C55.9598 39.6916 60.9516 35.3806 69.8006 34.6999L80.9942 33.8679V33.036C80.9942 27.9686 77.9689 25.9265 73.2797 25.9265C67.8342 25.9265 64.8088 28.1955 64.8088 32.1284H56.9431C56.9431 24.0357 63.5987 18.7414 73.7335 18.7414C83.7926 18.7414 89.9945 24.1869 89.9945 34.5486V57.2384H81.9018L81.2211 51.7172C79.6328 55.5745 74.5654 58.2216 68.7417 58.2216ZM71.767 51.2634C77.4395 51.2634 81.0698 47.8599 81.0698 42.1119V40.1454L73.2797 40.7505C67.5316 41.2799 65.3383 43.1707 65.3383 46.196C65.3383 49.5995 67.6072 51.2634 71.767 51.2634Z" fill="#EE2D21"/>
<path d="M108.171 57.2384L93.3465 19.8759H103.179L109.683 37.0445C111.271 41.5068 112.557 45.3641 113.011 47.4061C113.54 45.0615 114.902 41.1286 116.49 37.0445L123.297 19.8759H132.827L117.246 57.2384H108.171Z" fill="#EE2D21"/>
<path d="M147.358 57.2384H138.131V19.8759H146.678L147.434 24.7164C149.778 20.9347 154.316 18.7414 159.384 18.7414C168.762 18.7414 173.603 24.5651 173.603 34.2461V57.2384H164.376V36.4394C164.376 30.1619 161.275 27.1366 156.51 27.1366C150.837 27.1366 147.358 31.0695 147.358 37.1201V57.2384Z" fill="#EE2D21"/>
<path d="M182.669 57.2384V19.8759H191.896V57.2384H182.669Z" fill="#EE2D21"/>
<path d="M210.732 57.2384H201.58L201.687 4.1191L210.732 0.967739V35.5318L225.253 19.8759H236.825L222.606 34.6999L236.523 57.2384H225.934L216.177 41.5068L210.732 47.1792V57.2384Z" fill="#EE2D21"/>
<path d="M242.126 74.5583V19.8759H250.672L251.277 25.5483C253.546 21.2373 258.462 18.7414 264.135 18.7414C274.648 18.7414 281.606 26.3803 281.606 38.1033C281.606 49.7508 275.253 58.2216 264.135 58.2216C258.538 58.2216 253.698 56.0283 251.353 52.2466V74.5583H242.126ZM251.429 38.5571C251.429 45.2884 255.588 49.902 261.942 49.902C268.446 49.902 272.303 45.2128 272.303 38.5571C272.303 31.9015 268.446 27.1366 261.942 27.1366C255.588 27.1366 251.429 31.8258 251.429 38.5571Z" fill="#EE2D21"/>
<path d="M313.404 19.8759H322.631V57.2384H314.084L313.404 52.2466C311.135 55.8014 306.294 58.2216 301.302 58.2216C292.68 58.2216 287.613 52.3979 287.613 43.2464V19.8759H296.84V39.9942C296.84 47.1036 299.639 49.9777 304.782 49.9777C310.605 49.9777 313.404 46.5742 313.404 39.4647V19.8759Z" fill="#EE2D21"/>
<path d="M341.464 57.2384H332.312V0.967739H341.464V57.2384Z" fill="#EE2D21"/>
<path d="M348.269 45.8935H357.042C357.118 49.1457 359.538 51.1878 363.774 51.1878C368.085 51.1878 370.429 49.4482 370.429 46.7255C370.429 44.8346 369.446 43.4733 366.118 42.7169L359.387 41.1286C352.656 39.616 349.404 36.4394 349.404 30.4644C349.404 23.1281 355.605 18.7414 364.228 18.7414C372.623 18.7414 378.295 23.5819 378.371 30.8426H369.597C369.522 27.666 367.404 25.624 363.849 25.624C360.219 25.624 358.101 27.2879 358.101 30.0863C358.101 32.204 359.765 33.5654 362.942 34.3217L369.673 35.91C375.951 37.347 379.127 40.2211 379.127 45.9691C379.127 53.5324 372.698 58.2216 363.471 58.2216C354.168 58.2216 348.269 53.2299 348.269 45.8935Z" fill="#EE2D21"/>
<path d="M402.868 58.2216C391.75 58.2216 383.959 50.1289 383.959 38.5571C383.959 26.8341 391.598 18.7414 402.565 18.7414C413.759 18.7414 420.868 26.229 420.868 37.8764V40.6748L392.733 40.7505C393.413 47.3305 396.893 50.6583 403.019 50.6583C408.086 50.6583 411.414 48.6919 412.473 45.1372H421.019C419.431 53.3055 412.624 58.2216 402.868 58.2216ZM402.641 26.3047C397.195 26.3047 393.867 29.2543 392.96 34.8511H411.717C411.717 29.7081 408.162 26.3047 402.641 26.3047Z" fill="#EE2D21"/>
</svg>
